<svg height="512pt" viewBox="0 -34 512.00063 512" width="512pt" xmlns="http://www.w3.org/2000/svg"><path d="m500.515625 429.105469c-8.5 9.46875-20.683594 14.90625-33.414063 14.90625h-142.671874c-20.785157 0-38.726563-14.097657-43.632813-34.28125l-24.796875-101.953125-24.792969 101.953125c-4.910156 20.183593-22.851562 34.28125-43.632812 34.28125h-142.675781c-12.730469 0-24.914063-5.4375-33.414063-14.90625-8.5-9.476563-12.59375-22.167969-11.226563-34.832031l31.941407-294.492188 9.367187-86.429688c.820313-7.59375 7.234375-13.351562 14.878906-13.351562h399.109376c7.644531 0 14.058593 5.757812 14.878906 13.351562l9.367187 86.429688 31.941407 294.492188c1.367187 12.660156-2.722657 25.355468-11.226563 34.832031zm0 0" fill="#4895ff"/><path d="m511.742188 394.273438-31.9375-294.496094-9.371094-86.425782c-.816406-7.59375-7.234375-13.351562-14.875-13.351562h-199.558594v307.777344l24.796875 101.953125c4.90625 20.183593 22.847656 34.28125 43.632813 34.28125h142.671874c12.730469 0 24.914063-5.4375 33.414063-14.90625 8.503906-9.476563 12.59375-22.171875 11.226563-34.832031zm0 0" fill="#046eff"/><path d="m490.445312 197.875-12.4375-114.675781c-.824218-7.597657-7.238281-13.355469-14.878906-13.355469h-62.449218c-4.359376 0-8.5 1.898438-11.34375 5.203125-2.839844 3.300781-4.105469 7.675781-3.457032 11.984375l14.964844 99.78125c.898438 5.976562 5.304688 10.832031 11.171875 12.296875l59.867187 14.964844c1.203126.304687 2.421876.449219 3.628907.449219 4.660156 0 9.136719-2.179688 12-6.023438 2.292969-3.039062 3.34375-6.839844 2.933593-10.625zm0 0" fill="#6aa9ff"/><path d="m111.320312 69.84375h-62.449218c-7.640625 0-14.054688 5.757812-14.878906 13.355469l-12.433594 114.675781c-.40625 3.75.617187 7.519531 2.871094 10.546875.027343.035156.105468.144531.136718.179687 2.871094 3.785157 7.308594 5.921876 11.921875 5.921876 1.207031 0 2.425781-.144532 3.632813-.445313l59.863281-14.96875c5.867187-1.464844 10.277344-6.316406 11.171875-12.296875l14.96875-99.777344c.644531-4.3125-.617188-8.6875-3.460938-11.988281s-6.984374-5.203125-11.34375-5.203125zm0 0" fill="#7ed8f6"/><path d="m479.804688 99.777344h-447.605469l9.367187-86.425782c.820313-7.59375 7.234375-13.351562 14.878906-13.351562h399.113282c7.640625 0 14.058594 5.757812 14.875 13.351562zm0 0" fill="#fb8c00"/><path d="m241.035156 0h29.929688v99.777344h-29.929688zm0 0" fill="#ffb655"/><path d="m470.433594 13.351562c-.820313-7.59375-7.234375-13.351562-14.878906-13.351562h-199.554688v99.777344h223.800781zm0 0" fill="#ef6c00"/><path d="m256 0h14.964844v99.777344h-14.964844zm0 0" fill="#ff9f22"/></svg>